<?xml version="1.0" encoding="UTF-8"?>
<svg
  xmlns="http://www.w3.org/2000/svg"
  version="1.2"
  id="Layer_1"
  width="100"
  height="100"
  viewBox="0 0 100 100"
  preserveAspectRatio="xMidYMid meet"
  xml:space="preserve"
  baseProfile="tiny-ps">
<?xml version="1.0" encoding="UTF-8"?>
<svg xmlns="http://www.w3.org/2000/svg" xmlns:xlink="http://www.w3.org/1999/xlink" version="1.2" id="Layer_1" width="100" viewBox="0 0 100% " xml:space="preserve" baseProfile="tiny-ps">
<path fill="#FFFFFF" opacity="1.000000" stroke="none" d="M594.000000,1025.000000   C396.000000,1025.000000 198.500000,1025.000000 1.000000,1025.000000   C1.000000,683.666687 1.000000,342.333344 1.000000,1.000000   C342.333344,1.000000 683.666687,1.000000 1025.000000,1.000000   C1025.000000,342.333344 1025.000000,683.666687 1025.000000,1025.000000   C881.500000,1025.000000 738.000000,1025.000000 594.000000,1025.000000  M316.500000,605.137939   C413.599304,605.137939 510.698608,605.137939 608.014709,605.137939   C608.014709,590.790894 608.014709,577.066956 608.014709,562.855957   C547.323547,562.855957 486.917114,562.855957 426.388794,562.855957   C426.388794,550.322937 426.388794,538.280212 426.388794,525.736145   C481.491486,525.736145 536.235474,525.736145 590.989380,525.736145   C590.989380,512.796875 590.989380,500.365997 590.989380,487.354126   C535.962952,487.354126 481.232849,487.354126 426.282898,487.354126   C426.282898,477.181122 426.282898,467.594025 426.282898,457.403046   C485.263916,457.403046 543.993774,457.403046 602.904053,457.403046   C602.904053,443.875763 602.904053,430.953796 602.904053,417.951843   C487.439575,417.951843 372.252197,417.951843 256.504700,417.951843   C256.504700,439.802429 256.504700,461.213409 256.504700,482.576965   C217.377335,482.576965 178.812302,482.576965 139.746750,482.576965   C139.746750,460.780182 139.746750,439.373383 139.746750,417.823456   C104.508041,417.823456 69.773514,417.823456 35.035725,417.823456   C35.035725,480.365051 35.035725,542.589661 35.035725,604.722046   C70.120872,604.722046 104.831192,604.722046 139.926178,604.722046   C139.926178,579.530090 139.926178,554.750305 139.926178,529.699890   C179.006683,529.699890 217.697647,529.699890 256.983154,529.699890   C256.983154,555.001038 256.983154,579.892578 256.983154,605.137390   C276.884277,605.137390 296.192139,605.137390 316.500000,605.137939  M723.500244,417.509003   C688.593018,417.509003 653.685791,417.509003 618.795288,417.509003   C618.795288,480.408722 618.795288,542.518860 618.795288,605.137268   C620.832581,605.137268 622.621521,605.137207 624.410400,605.137268   C673.234009,605.138000 722.058533,605.304138 770.880676,605.042053   C786.187012,604.959900 801.528137,604.205933 816.780823,602.907837   C841.151245,600.833679 864.974854,596.259277 886.513428,583.710449   C901.902832,574.744202 915.421814,563.797180 922.487061,546.821228   C940.075134,504.561493 923.407043,458.246185 883.088074,436.822937   C862.556702,425.913696 840.393860,420.286041 817.425598,419.269470   C786.485168,417.900085 755.478516,418.025360 723.500244,417.509003  M932.069824,606.223755   C933.644226,606.500793 935.217712,607.013000 936.793091,607.018616   C953.290161,607.077271 969.787415,607.061890 986.284668,607.042236   C987.721924,607.040527 989.158936,606.863342 990.551270,606.770569   C990.551270,588.999023 990.551270,571.598328 990.551270,554.125061   C970.954590,554.125061 951.705200,554.125061 931.951233,554.125061   C931.951233,571.367188 931.951233,588.316833 932.069824,606.223755  z"/>
<path fill="#252022" opacity="1.000000" stroke="none" d="M316.000000,605.137695   C296.192139,605.137390 276.884277,605.137390 256.983154,605.137390   C256.983154,579.892578 256.983154,555.001038 256.983154,529.699890   C217.697647,529.699890 179.006683,529.699890 139.926178,529.699890   C139.926178,554.750305 139.926178,579.530090 139.926178,604.722046   C104.831192,604.722046 70.120872,604.722046 35.035725,604.722046   C35.035725,542.589661 35.035725,480.365051 35.035725,417.823456   C69.773514,417.823456 104.508041,417.823456 139.746750,417.823456   C139.746750,439.373383 139.746750,460.780182 139.746750,482.576965   C178.812302,482.576965 217.377335,482.576965 256.504700,482.576965   C256.504700,461.213409 256.504700,439.802429 256.504700,417.951843   C372.252197,417.951843 487.439575,417.951843 602.904053,417.951843   C602.904053,430.953796 602.904053,443.875763 602.904053,457.403046   C543.993774,457.403046 485.263916,457.403046 426.282898,457.403046   C426.282898,467.594025 426.282898,477.181122 426.282898,487.354126   C481.232849,487.354126 535.962952,487.354126 590.989380,487.354126   C590.989380,500.365997 590.989380,512.796875 590.989380,525.736145   C536.235474,525.736145 481.491486,525.736145 426.388794,525.736145   C426.388794,538.280212 426.388794,550.322937 426.388794,562.855957   C486.917114,562.855957 547.323547,562.855957 608.014709,562.855957   C608.014709,577.066956 608.014709,590.790894 608.014709,605.137939   C510.698608,605.137939 413.599304,605.137939 316.000000,605.137695  z"/>
<path fill="#252022" opacity="1.000000" stroke="none" d="M724.000244,417.509094   C755.478516,418.025360 786.485168,417.900085 817.425598,419.269470   C840.393860,420.286041 862.556702,425.913696 883.088074,436.822937   C923.407043,458.246185 940.075134,504.561493 922.487061,546.821228   C915.421814,563.797180 901.902832,574.744202 886.513428,583.710449   C864.974854,596.259277 841.151245,600.833679 816.780823,602.907837   C801.528137,604.205933 786.187012,604.959900 770.880676,605.042053   C722.058533,605.304138 673.234009,605.138000 624.410400,605.137268   C622.621521,605.137207 620.832581,605.137268 618.795288,605.137268   C618.795288,542.518860 618.795288,480.408722 618.795288,417.509003   C653.685791,417.509003 688.593018,417.509003 724.000244,417.509094  M827.823975,515.329651   C828.006714,504.425995 827.253479,493.666351 822.299622,483.680328   C815.871155,470.721710 803.970581,465.831207 790.904846,463.140198   C767.538757,458.327728 743.847046,459.935120 720.239380,460.123627   C719.996094,460.125549 719.755859,460.519379 719.562683,460.687958   C719.562683,494.446472 719.562683,528.153564 719.562683,562.205383   C732.064026,562.205383 744.219360,562.614868 756.334900,562.095947   C769.770264,561.520447 783.371826,561.194397 796.532959,558.765320   C813.004456,555.725159 823.819885,545.518738 826.438049,528.166809   C827.033020,524.224060 827.343445,520.238342 827.823975,515.329651  z"/>
<path fill="#262223" opacity="1.000000" stroke="none" d="M932.010498,605.745117   C931.951233,588.316833 931.951233,571.367188 931.951233,554.125061   C951.705200,554.125061 970.954590,554.125061 990.551270,554.125061   C990.551270,571.598328 990.551270,588.999023 990.551270,606.770569   C989.158936,606.863342 987.721924,607.040527 986.284668,607.042236   C969.787415,607.061890 953.290161,607.077271 936.793091,607.018616   C935.217712,607.013000 933.644226,606.500793 932.010498,605.745117  z"/>
<path fill="#FDFDFD" opacity="1.000000" stroke="none" d="M827.804443,515.801025   C827.343445,520.238342 827.033020,524.224060 826.438049,528.166809   C823.819885,545.518738 813.004456,555.725159 796.532959,558.765320   C783.371826,561.194397 769.770264,561.520447 756.334900,562.095947   C744.219360,562.614868 732.064026,562.205383 719.562683,562.205383   C719.562683,528.153564 719.562683,494.446472 719.562683,460.687958   C719.755859,460.519379 719.996094,460.125549 720.239380,460.123627   C743.847046,459.935120 767.538757,458.327728 790.904846,463.140198   C803.970581,465.831207 815.871155,470.721710 822.299622,483.680328   C827.253479,493.666351 828.006714,504.425995 827.804443,515.801025  z"/>
<title>HED</title></svg>
  <path fill="#FFFFFF" opacity="1.000000" stroke="none" d="M594.000000,1025.000000 C396.000000,1025.000000 198.500000,1025.000000 1.000000,1025.000000 … z"/>
  <!-- etc. -->

  <title>HED</title>
</svg>
