<?xml version="1.0" encoding="UTF-8"?>
<svg xmlns="http://www.w3.org/2000/svg" version="1.2" width="96" height="96" baseProfile="tiny-ps" viewBox="0 0 96 96">
  <path d="M0 0 C31.68 0 63.36 0 96 0 C96 31.68 96 63.36 96 96 C64.32 96 32.64 96 0 96 C0 64.32 0 32.64 0 0 Z" fill="#FEFEFE" transform="translate(0,0)"/>
  <path d="M0 0 C3.3 0 6.6 0 10 0 C10 1.98 10 3.96 10 6 C13.63 6 17.26 6 21 6 C21 4.02 21 2.04 21 0 C31.56 0 42.12 0 53 0 C53 1.32 53 2.64 53 4 C47.72 4 42.44 4 37 4 C37 4.99 37 5.98 37 7 C41.95 7 46.9 7 52 7 C52 7.99 52 8.98 52 10 C47.05 10 42.1 10 37 10 C37 11.32 37 12.64 37 14 C42.61 14 48.22 14 54 14 C54 14.99 54 15.98 54 17 C43.11 17 32.22 17 21 17 C21 15.02 21 13.04 21 11 C17.37 11 13.74 11 10 11 C10 13.31 10 15.62 10 18 C6.7 18 3.4 18 0 18 C0 12.06 0 6.12 0 0 Z" fill="#2B2628" transform="translate(3,39)"/>
  <path d="M0 0 C3.37548805 -0.08122832 6.74900518 -0.14061118 10.125 -0.1875 C11.55199219 -0.22520508 11.55199219 -0.22520508 13.0078125 -0.26367188 C18.4185834 -0.32003407 22.37940796 -0.16650796 27 3 C29.32749345 6.49124017 29.50299316 7.89222251 29 12 C27.1329009 14.30275556 25.64352259 15.67823871 23 17 C21.2595583 17.08449628 19.51590278 17.10723024 17.7734375 17.09765625 C16.7421875 17.09443359 15.7109375 17.09121094 14.6484375 17.08789062 C13.02808594 17.07532227 13.02808594 17.07532227 11.375 17.0625 C9.74304688 17.05573242 9.74304688 17.05573242 8.078125 17.04882812 C5.38539338 17.0370179 2.69268991 17.01908205 0 17 C0 11.39 0 5.78 0 0 Z" fill="#292426" transform="translate(58,39)"/>
  <path d="M0 0 C0.66 0 1.32 0 2 0 C2 5.61 2 11.22 2 17 C8.27 17 14.54 17 21 17 C21 17.33 21 17.66 21 18 C3.51 18 -13.98 18 -32 18 C-32 17.67 -32 17.34 -32 17 C-21.11 17 -10.22 17 1 17 C1 16.01 1 15.02 1 14 C-4.61 14 -10.22 14 -16 14 C-16 12.68 -16 11.36 -16 10 C-11.05 10 -6.1 10 -1 10 C-1 9.01 -1 8.02 -1 7 C-5.95 7 -10.9 7 -16 7 C-16 6.01 -16 5.02 -16 4 C-10.72 4 -5.44 4 0 4 C0 2.68 0 1.36 0 0 Z" fill="#B9B7B8" transform="translate(56,39)"/>
  <path d="M0 0 C6.0546875 -0.1953125 6.0546875 -0.1953125 8 0 C10 2 10 2 10.25 5 C10 8 10 8 8 10 C5.31160615 10.26991906 2.70858064 10.08737357 0 10 C0 6.7 0 3.4 0 0 Z" fill="#EBEBEB" transform="translate(67,43)"/>
  <path d="M0 0 C5.61 0 11.22 0 17 0 C16.67 1.98 16.34 3.96 16 6 C15.67 5.01 15.34 4.02 15 3 C10.05 3 5.1 3 0 3 C0 2.01 0 1.02 0 0 Z" fill="#DDDCDC" transform="translate(40,43)"/>
  <path d="M0 0 C1.98 0 3.96 0 6 0 C6 1.65 6 3.3 6 5 C4.02 5 2.04 5 0 5 C0 3.35 0 1.7 0 0 Z" fill="#3B3739" transform="translate(87,52)"/>
<title>HED</title></svg>
