<?xml version="1.0" encoding="UTF-8"?>
<svg xmlns="http://www.w3.org/2000/svg" xmlns:xlink="http://www.w3.org/1999/xlink" version="1.2" id="Layer_1" width="" viewBox="0 0 100% " xml:space="preserve" baseProfile="tiny-ps">
<path fill="#FFFFFF" opacity="1.000000" stroke="none" d=" M789.000000,629.000000   C526.000000,629.000000 263.500031,629.000000 1.000035,629.000000   C1.000023,419.666687 1.000023,210.333389 1.000012,1.000063   C400.999969,1.000042 800.999939,1.000042 1201.000000,1.000021   C1201.000000,210.333267 1201.000000,419.666534 1201.000000,628.999878   C1063.833374,629.000000 926.666687,629.000000 789.000000,629.000000  M54.585194,421.931519   C92.700195,421.931519 130.815186,421.931519 169.503311,421.931519   C169.503311,392.541168 169.503311,363.631714 169.503311,334.550415   C214.764191,334.550415 259.448914,334.550415 304.794434,334.550415   C304.794434,363.815521 304.794434,392.684937 304.794434,421.606415   C440.511414,421.606415 575.565979,421.606415 710.675659,421.606415   C710.675659,405.239380 710.675659,389.200409 710.675659,372.741302   C640.377502,372.741302 570.464783,372.741302 500.418701,372.741302   C500.418701,358.406281 500.418701,344.497467 500.418701,330.093262   C564.086853,330.093262 627.488953,330.093262 691.101929,330.093262   C691.101929,315.189697 691.101929,300.783264 691.101929,285.798157   C627.487793,285.798157 564.102356,285.798157 500.435303,285.798157   C500.435303,273.996429 500.435303,262.773010 500.435303,250.893188   C568.711243,250.893188 636.740295,250.893188 704.887939,250.893188   C704.887939,235.304703 704.887939,220.372849 704.887939,205.145111   C571.451294,205.145111 438.237793,205.145111 304.457031,205.145111   C304.457031,230.269730 304.457031,255.155045 304.457031,280.051849   C259.179047,280.051849 214.469437,280.051849 169.396393,280.051849   C169.396393,254.867035 169.396393,230.082764 169.396393,205.217224   C128.658340,205.217224 88.287102,205.217224 48.216908,205.217224   C48.216908,277.634003 48.216908,349.681427 48.216908,421.931519   C50.302944,421.931519 51.956978,421.931519 54.585194,421.931519  M1023.163696,224.366760   C1018.876465,222.551880 1014.646545,220.584564 1010.292725,218.946716   C980.823792,207.860809 949.991638,205.130539 918.911194,204.977921   C854.922546,204.663666 790.931458,204.860229 726.941345,204.859177   C725.666016,204.859161 724.390686,205.013626 723.166382,205.092712   C723.166382,277.475403 723.166382,349.527832 723.166382,421.930237   C725.301819,421.930237 727.104065,421.930206 728.906372,421.930237   C782.064880,421.930939 835.223694,421.819244 888.381653,421.982178   C913.069336,422.057861 937.658997,421.258301 962.201233,418.224518   C987.566345,415.089050 1012.012207,409.314819 1034.204102,396.117279   C1053.101929,384.878632 1069.483398,370.964996 1076.123169,349.127869   C1084.062988,323.015137 1083.846191,296.858826 1072.479126,271.523865   C1062.575073,249.449951 1044.969360,235.192200 1023.163696,224.366760  M1085.072754,412.478943   C1085.072754,416.242432 1085.072754,420.005951 1085.072754,423.731262   C1108.162354,423.731262 1130.568604,423.731262 1152.982666,423.731262   C1152.982666,403.274384 1152.982666,383.144318 1152.982666,362.820679   C1130.374878,362.820679 1107.951538,362.820679 1085.072754,362.820679   C1085.072754,379.231049 1085.072754,395.358673 1085.072754,412.478943  z"/>
<path fill="#252022" opacity="1.000000" stroke="none" d=" M54.098103,421.931519   C51.956978,421.931519 50.302944,421.931519 48.216908,421.931519   C48.216908,349.681427 48.216908,277.634003 48.216908,205.217224   C88.287102,205.217224 128.658340,205.217224 169.396393,205.217224   C169.396393,230.082764 169.396393,254.867035 169.396393,280.051849   C214.469437,280.051849 259.179047,280.051849 304.457031,280.051849   C304.457031,255.155045 304.457031,230.269730 304.457031,205.145111   C438.237793,205.145111 571.451294,205.145111 704.887939,205.145111   C704.887939,220.372849 704.887939,235.304703 704.887939,250.893188   C636.740295,250.893188 568.711243,250.893188 500.435303,250.893188   C500.435303,262.773010 500.435303,273.996429 500.435303,285.798157   C564.102356,285.798157 627.487793,285.798157 691.101929,285.798157   C691.101929,300.783264 691.101929,315.189697 691.101929,330.093262   C627.488953,330.093262 564.086853,330.093262 500.418701,330.093262   C500.418701,344.497467 500.418701,358.406281 500.418701,372.741302   C570.464783,372.741302 640.377502,372.741302 710.675659,372.741302   C710.675659,389.200409 710.675659,405.239380 710.675659,421.606415   C575.565979,421.606415 440.511414,421.606415 304.794434,421.606415   C304.794434,392.684937 304.794434,363.815521 304.794434,334.550415   C259.448914,334.550415 214.764191,334.550415 169.503311,334.550415   C169.503311,363.631714 169.503311,392.541168 169.503311,421.931519   C130.815186,421.931519 92.700195,421.931519 54.098103,421.931519  z"/>
<path fill="#252022" opacity="1.000000" stroke="none" d=" M1023.501404,224.524658   C1044.969360,235.192200 1062.575073,249.449951 1072.479126,271.523865   C1083.846191,296.858826 1084.062988,323.015137 1076.123169,349.127869   C1069.483398,370.964996 1053.101929,384.878632 1034.204102,396.117279   C1012.012207,409.314819 987.566345,415.089050 962.201233,418.224518   C937.658997,421.258301 913.069336,422.057861 888.381653,421.982178   C835.223694,421.819244 782.064880,421.930939 728.906372,421.930237   C727.104065,421.930206 725.301819,421.930237 723.166382,421.930237   C723.166382,349.527832 723.166382,277.475403 723.166382,205.092712   C724.390686,205.013626 725.666016,204.859161 726.941345,204.859177   C790.931458,204.860229 854.922546,204.663666 918.911194,204.977921   C949.991638,205.130539 980.823792,207.860809 1010.292725,218.946716   C1014.646545,220.584564 1018.876465,222.551880 1023.501404,224.524658  M913.451416,255.945374   C888.943359,252.604202 864.336487,254.200241 839.511719,253.779663   C839.511719,293.537170 839.511719,332.603180 839.511719,372.216675   C841.422302,372.216675 843.046997,372.219177 844.671692,372.216248   C859.002930,372.190247 873.357544,372.663025 887.658875,371.995056   C901.756775,371.336548 916.030701,370.673737 929.809570,367.921173   C946.650146,364.556915 958.516113,354.191681 962.509216,336.680054   C965.389221,324.049957 965.564331,311.227448 963.724182,298.426605   C960.686584,277.296295 948.653809,264.187042 927.968811,259.040131   C923.452332,257.916321 918.875977,257.033142 913.451416,255.945374  z"/>
<path fill="#242022" opacity="1.000000" stroke="none" d=" M1085.072754,411.982635   C1085.072754,395.358673 1085.072754,379.231049 1085.072754,362.820679   C1107.951538,362.820679 1130.374878,362.820679 1152.982666,362.820679   C1152.982666,383.144318 1152.982666,403.274384 1152.982666,423.731262   C1130.568604,423.731262 1108.162354,423.731262 1085.072754,423.731262   C1085.072754,420.005951 1085.072754,416.242432 1085.072754,411.982635  z"/>
<path fill="#FDFDFD" opacity="1.000000" stroke="none" d=" M913.889282,255.992249   C918.875977,257.033142 923.452332,257.916321 927.968811,259.040131   C948.653809,264.187042 960.686584,277.296295 963.724182,298.426605   C965.564331,311.227448 965.389221,324.049957 962.509216,336.680054   C958.516113,354.191681 946.650146,364.556915 929.809570,367.921173   C916.030701,370.673737 901.756775,371.336548 887.658875,371.995056   C873.357544,372.663025 859.002930,372.190247 844.671692,372.216248   C843.046997,372.219177 841.422302,372.216675 839.511719,372.216675   C839.511719,332.603180 839.511719,293.537170 839.511719,253.779663   C864.336487,254.200241 888.943359,252.604202 913.889282,255.992249  z"/>
<title>Title</title></svg>
